<?xml version="1.0" encoding="UTF-8"?><svg id="a" xmlns="http://www.w3.org/2000/svg" viewBox="0 0 1800 600"><defs><style>.b{fill:#fff;}.c{opacity:.81;}</style></defs><path class="b" d="M154.18,536.2c-2.35,0-4.54-1.03-6.02-2.82L14,370.19c-1.5-1.83-2.05-4.19-1.52-6.48l47.89-203.48c.54-2.27,2.07-4.15,4.21-5.14l193.86-90.56c1.04-.48,2.19-.73,3.32-.73s2.29.25,3.31.72l193.88,90.56c2.13,1,3.67,2.88,4.21,5.14l47.88,203.49c.54,2.28,0,4.64-1.52,6.47l-134.16,163.18c-1.47,1.79-3.66,2.82-6.02,2.82h-215.17ZM339.5,474.49l96.89-117.86-34.56-146.91-140.07-65.43-140.06,65.43-34.57,146.91,96.89,117.86h155.48Z"/><polygon class="b" points="282.92 295.66 261.76 230.54 246.53 277.41 253.04 277.41 261.76 250.58 278.42 301.85 288.61 301.85 297.13 295.66 282.92 295.66"/><polygon class="b" points="257.2 283.6 188.72 283.6 228.6 312.57 230.61 306.38 207.78 289.79 261.7 289.8 264.84 280.11 261.59 270.09 257.2 283.6"/><polygon class="b" points="237.78 304.34 216.62 369.46 256.49 340.49 251.23 336.67 228.4 353.25 245.06 301.98 236.82 295.99 226.28 295.99 237.78 304.34"/><polygon class="b" points="251.51 329.22 306.9 369.46 291.67 322.59 286.4 326.42 295.12 353.25 251.51 321.56 243.26 327.55 240.01 337.57 251.51 329.22"/><polygon class="b" points="279.4 323.85 334.8 283.6 285.51 283.6 287.53 289.8 315.74 289.8 272.12 321.48 275.27 331.17 283.8 337.37 279.4 323.85"/><g class="c"><path class="b" d="M604.95,166.97h48.57l52.99,141.73h-49.72l-7.1-20.82h-43.2l-6.72,20.82h-48.38l53.56-141.73ZM628.56,216.42l-11.13,35.03h22.08l-10.94-35.03Z"/><path class="b" d="M735.3,166.97h46.08v100.69h45.12v41.04h-91.19v-141.73Z"/><path class="b" d="M905.39,263.06v45.64h-45.5v-141.73h58.36c6.91,0,13.69.77,20.35,2.3,6.65,1.54,12.6,4.14,17.85,7.81,5.25,3.67,9.47,8.54,12.67,14.61,3.2,6.07,4.8,13.71,4.8,22.92s-1.57,16.28-4.7,22.42c-3.14,6.14-7.29,11.14-12.48,15.01-5.18,3.87-11.13,6.67-17.85,8.41-6.72,1.74-13.6,2.6-20.64,2.6h-12.86ZM905.39,204.01v22.82h9.6c3.46,0,6.62-.9,9.5-2.7s4.32-4.84,4.32-9.11c0-2.27-.38-4.1-1.15-5.5-.77-1.4-1.82-2.5-3.17-3.3s-2.85-1.37-4.51-1.7c-1.67-.33-3.33-.5-4.99-.5h-9.6Z"/><path class="b" d="M1093.34,254.85h-37.24v53.85h-45.69v-141.73h45.5v48.04h37.25v-48.04h45.88v141.73h-45.69v-53.85Z"/><path class="b" d="M1221.39,166.97h48.57l52.99,141.73h-49.72l-7.1-20.82h-43.2l-6.72,20.82h-48.38l53.56-141.73ZM1245,216.42l-11.13,35.03h22.08l-10.94-35.03Z"/><path class="b" d="M1396.47,252.25h-.38v56.45h-44.35v-141.73h44.16v52.25h.38l36.29-52.25h53.75l-51.07,64.86,53.56,76.87h-56.06l-36.28-56.45Z"/><path class="b" d="M1517.42,166.97h93.5v39.64h-50.49v12.21h47.42v37.03h-47.42v13.21h53.75v39.64h-96.76v-141.73Z"/><path class="b" d="M1732.05,308.7h-45.69v-58.05l-51.26-83.68h55.1l21.5,41.64,20.54-41.64h53.75l-53.95,83.68v58.05Z"/></g><g class="c"><path class="b" d="M728.72,429.61c0,.36-.06.78-.19,1.26-.13.48-.28.72-.47.72-3.09,0-6.24-.08-9.46-.23-3.22-.15-6.27-.22-9.18-.22s-5.88.07-8.94.22-6.13.23-9.22.23c-.19,0-.38-.23-.57-.67-.19-.45-.28-.88-.28-1.31,0-.3.08-.69.24-1.17.16-.48.33-.75.52-.81,3.41-.36,5.75-1.11,7.05-2.25,1.29-1.14,1.84-2.91,1.66-5.31l-1.7-38.88-20.72,51.12c-.06.12-.38.27-.95.45-.57.18-1.2.27-1.89.27-.88,0-1.54-.09-1.99-.27s-.73-.33-.85-.45l-20.91-49.14-2.37,36.9c-.19,2.46.36,4.25,1.66,5.36,1.29,1.11,3.77,1.84,7.43,2.21.19,0,.33.25.43.76.09.51.14.92.14,1.21,0,.42-.09.86-.28,1.31-.19.45-.38.67-.57.67-2.4,0-4.59-.08-6.58-.23-1.99-.15-4.08-.22-6.29-.22s-4.38.07-6.34.22c-1.96.15-4,.23-6.15.23-.19,0-.35-.26-.47-.77s-.19-.91-.19-1.21c0-.42.11-.84.33-1.26.22-.42.43-.66.62-.72,3.72-.42,6.29-1.15,7.71-2.21,1.42-1.05,2.25-2.83,2.51-5.36l3.88-39.51c.19-2.52-.38-4.3-1.7-5.35-1.32-1.05-3.82-1.79-7.47-2.21-.19-.06-.35-.33-.47-.81-.13-.48-.19-.87-.19-1.17,0-.42.11-.85.33-1.3.22-.45.43-.67.62-.67,1.58,0,3.69.08,6.33.22,2.65.15,4.66.22,6.04.22,1.75,0,4.09-.07,7.01-.22,2.92-.15,5.38-.22,7.38-.22l17.31,40.7,16.56-40.7c2.4,0,4.87.08,7.43.22,2.55.15,4.65.22,6.29.22,1.89,0,4.13-.07,6.72-.22,2.58-.15,4.82-.22,6.72-.22.19,0,.36.24.52.72.16.48.24.9.24,1.26,0,.3-.06.71-.19,1.21-.13.51-.28.77-.47.77-3.47.36-5.82,1.11-7.05,2.25-1.23,1.14-1.78,2.91-1.66,5.31l1.99,39.51c.13,2.4.77,4.17,1.94,5.31,1.17,1.14,3.64,1.89,7.43,2.25.19,0,.36.25.52.76.16.51.24.92.24,1.21Z"/><path class="b" d="M855.48,400.63c0,9-3.23,16.65-9.7,22.95-6.46,6.3-15.59,9.45-27.39,9.45s-20.94-3.16-27.43-9.5c-6.5-6.33-9.74-13.96-9.74-22.9s3.25-16.68,9.74-23.22c6.5-6.54,15.64-9.81,27.43-9.81s20.61,3.23,27.2,9.67c6.59,6.45,9.89,14.24,9.89,23.36ZM836,400.63c0-8.28-1.26-15.13-3.78-20.57-2.52-5.43-7.13-8.14-13.81-8.14s-11.37,2.75-13.86,8.23c-2.49,5.49-3.74,12.32-3.74,20.48s1.25,15.11,3.74,20.29c2.49,5.19,7.11,7.79,13.86,7.79s11.29-2.61,13.81-7.83c2.52-5.22,3.78-11.97,3.78-20.25Z"/><path class="b" d="M985.74,429.61c-.06.36-.21.78-.43,1.26-.22.48-.43.72-.62.72-1.77,0-4.1-.08-7-.23s-4.89-.22-5.96-.22c-1.51,0-3.5.07-5.96.22-2.46.15-4.45.23-5.96.23l-11.92-23.04c-.95-1.8-2.08-3.04-3.41-3.74-1.32-.69-3.12-1.04-5.39-1.04v16.29c0,2.4.47,4.17,1.42,5.31.95,1.14,3.25,1.89,6.91,2.25.19,0,.36.25.52.76.16.51.24.92.24,1.21,0,.36-.08.78-.24,1.26-.16.48-.33.72-.52.72-3.09,0-6.09-.08-8.99-.23-2.9-.15-5.8-.22-8.7-.22s-5.91.07-9.03.22-6.23.23-9.32.23c-.19,0-.36-.23-.52-.67-.16-.45-.24-.88-.24-1.31,0-.3.08-.69.24-1.17.16-.48.33-.75.52-.81,3.66-.42,6.07-1.17,7.24-2.25,1.17-1.08,1.75-2.85,1.75-5.31v-39.51c0-2.46-.58-4.23-1.75-5.31-1.17-1.08-3.58-1.83-7.24-2.25-.19-.06-.36-.33-.52-.81-.16-.48-.24-.87-.24-1.17,0-.42.08-.85.24-1.3.16-.45.33-.67.52-.67,3.09,0,6.26.08,9.51.22,3.25.15,6.32.22,9.22.22s5.49-.07,7.76-.22c2.27-.15,4.95-.22,8.04-.22,10.22,0,17.59,1.6,22.14,4.81,4.54,3.21,6.81,6.98,6.81,11.29,0,4.08-1.03,7.37-3.08,9.86-2.05,2.49-5.39,4.39-10,5.71l12.98,20.61c1.33,2.1,2.68,3.6,4.07,4.5,1.39.9,3.54,1.5,6.44,1.8.19,0,.33.25.43.76.09.51.11.92.05,1.21ZM955.38,386.77c0-4.62-.88-7.99-2.65-10.12-1.77-2.13-4.48-3.2-8.13-3.2-2.27,0-3.75.42-4.45,1.26s-1.04,2.31-1.04,4.41v20.34c.38.06.93.12,1.66.18.72.06,1.4.09,2.03.09,4.48,0,7.69-.96,9.65-2.88,1.96-1.92,2.93-5.28,2.93-10.08Z"/><path class="b" d="M1101.62,390.1c0,.3-.24.57-.71.81-.47.24-1.02.36-1.66.36-.25,0-.6-.04-1.04-.13-.44-.09-.69-.2-.76-.32-.88-3.3-2.98-6.94-6.29-10.93-3.31-3.99-6.42-5.99-9.32-5.99h-1.42c-1.45,0-2.49.29-3.12.86-.63.57-.95,1.46-.95,2.65v42.66c0,2.4.6,4.17,1.8,5.31,1.2,1.14,3.63,1.89,7.28,2.25.19,0,.36.25.52.76.16.51.24.92.24,1.21,0,.36-.08.78-.24,1.26-.16.48-.33.72-.52.72-3.03,0-6.13-.08-9.32-.23s-6.2-.22-9.03-.22-5.93.07-9.08.22-6.28.23-9.37.23c-.19,0-.36-.24-.52-.72-.16-.48-.24-.9-.24-1.26,0-.3.08-.69.24-1.17.16-.48.33-.75.52-.81,3.72-.42,6.17-1.17,7.33-2.25,1.17-1.08,1.75-2.85,1.75-5.31v-42.66c0-1.32-.28-2.23-.85-2.74s-1.64-.77-3.22-.77h-.76c-2.59,0-5.77,1.85-9.55,5.54-3.78,3.69-6.46,7.49-8.04,11.38-.06.18-.3.3-.71.36-.41.06-.74.09-.99.09-.57,0-1.12-.12-1.66-.36-.54-.24-.8-.51-.8-.81.63-3,1.31-6.67,2.03-11.03.72-4.35,1.25-7.96,1.56-10.84,2.21.36,5.64.66,10.31.9s12.01.36,22.04.36c8.58,0,15.72-.12,21.43-.36,5.71-.24,9.47-.54,11.3-.9.19,2.88.44,6.3.76,10.26s.66,7.83,1.04,11.61Z"/><path class="b" d="M1228,403.91c0,.3-.08.71-.24,1.21-.16.51-.33.76-.52.76-3.03.3-5.11,1.08-6.24,2.34-1.14,1.26-1.7,3-1.7,5.23v9.1c0,1.5.08,2.58.24,3.25.16.66.43,1.38.8,2.16-3.78,1.26-8.14,2.42-13.05,3.47s-10.03,1.58-15.33,1.58c-6.12,0-11.57-.9-16.37-2.7-4.79-1.8-8.77-4.23-11.92-7.29-3.09-2.94-5.42-6.36-7-10.26-1.58-3.9-2.37-7.95-2.37-12.15,0-4.5.87-8.69,2.6-12.56,1.73-3.87,4.37-7.39,7.9-10.57,3.47-3.06,7.83-5.47,13.1-7.25,5.27-1.77,11.12-2.66,17.55-2.66,3.66,0,7.47.51,11.45,1.53,3.97,1.02,7.41,1.53,10.31,1.53,0,2.46.06,5.62.19,9.5.12,3.87.22,7.13.28,9.77,0,.18-.27.34-.8.5-.54.15-1.03.22-1.47.22s-.83-.06-1.18-.18c-.35-.12-.58-.3-.71-.54-1.45-4.98-4.05-9.21-7.8-12.69-3.75-3.48-8.25-5.22-13.48-5.22-5.68,0-10.17,2.67-13.48,8.01-3.31,5.34-4.97,12.21-4.97,20.61s1.61,14.8,4.82,20.12c3.22,5.31,7.66,7.96,13.34,7.96,3.85,0,6.45-.48,7.8-1.44,1.36-.96,2.03-2.4,2.03-4.33v-10.73c0-2.04-.57-3.49-1.7-4.33s-3.66-1.47-7.57-1.89c-.19,0-.36-.24-.52-.72-.16-.48-.24-.93-.24-1.35s.08-.86.24-1.31c.16-.45.33-.67.52-.67,3.09,0,5.8.1,8.13.29,2.33.2,4.92.29,7.76.29s5.99-.1,9.27-.29,6.46-.29,9.55-.29c.19,0,.36.24.52.72.16.48.24.9.24,1.26Z"/><path class="b" d="M1350.79,429.61c0,.36-.08.78-.24,1.26-.16.48-.33.72-.52.72-3.03,0-6.08-.08-9.17-.23-3.09-.15-5.92-.22-8.51-.22-2.9,0-6,.07-9.31.22-3.31.15-6.51.23-9.6.23-.19,0-.36-.23-.52-.67-.16-.45-.24-.88-.24-1.31,0-.3.05-.69.14-1.17.09-.48.24-.75.43-.81,3.03-.18,5.03-.55,6.01-1.12.98-.57,1.47-1.46,1.47-2.66,0-.48-.11-1.08-.33-1.8-.22-.72-.46-1.38-.71-1.98l-2.58-6.3h-19.86l-2.3,5.22c-.38.84-.68,1.64-.9,2.39s-.33,1.39-.33,1.93c0,1.26.36,2.27,1.09,3.01.72.75,2.73,1.19,6.01,1.31.19,0,.32.25.38.76.06.51.09.92.09,1.21,0,.42-.08.86-.24,1.31-.16.45-.33.67-.52.67-2.71,0-4.82-.08-6.34-.23s-3.53-.22-6.05-.22c-2.08,0-3.9.07-5.48.22s-3.43.23-5.57.23c-.19,0-.35-.26-.47-.77-.12-.51-.19-.91-.19-1.21s.14-.69.43-1.17c.28-.48.52-.75.71-.81,2.71-.24,4.82-1.02,6.34-2.34s3.06-3.54,4.63-6.66l23.46-50.31c.06-.18.41-.34,1.04-.5.63-.15,1.23-.22,1.8-.22s1.17.08,1.8.22c.63.15.98.32,1.04.5l21,50.31c1.13,3,2.49,5.17,4.07,6.52,1.58,1.35,3.94,2.18,7.09,2.48.19,0,.39.25.62.76.22.51.33.92.33,1.21ZM1315.3,409.45l-7.97-19.81-8.31,19.81h16.27Z"/><path class="b" d="M1473.01,403.91c0,.3-.08.71-.24,1.21-.16.51-.33.76-.52.76-3.03.3-5.11,1.08-6.24,2.34-1.14,1.26-1.7,3-1.7,5.23v9.1c0,1.5.08,2.58.24,3.25.16.66.43,1.38.8,2.16-3.78,1.26-8.14,2.42-13.05,3.47s-10.03,1.58-15.33,1.58c-6.12,0-11.57-.9-16.37-2.7-4.79-1.8-8.77-4.23-11.92-7.29-3.09-2.94-5.42-6.36-7-10.26-1.58-3.9-2.37-7.95-2.37-12.15,0-4.5.87-8.69,2.6-12.56,1.73-3.87,4.37-7.39,7.9-10.57,3.47-3.06,7.83-5.47,13.1-7.25,5.27-1.77,11.12-2.66,17.55-2.66,3.66,0,7.47.51,11.45,1.53,3.97,1.02,7.41,1.53,10.31,1.53,0,2.46.06,5.62.19,9.5.12,3.87.22,7.13.28,9.77,0,.18-.27.34-.8.5-.54.15-1.03.22-1.47.22s-.83-.06-1.18-.18c-.35-.12-.58-.3-.71-.54-1.45-4.98-4.05-9.21-7.8-12.69-3.75-3.48-8.25-5.22-13.48-5.22-5.68,0-10.17,2.67-13.48,8.01-3.31,5.34-4.97,12.21-4.97,20.61s1.61,14.8,4.82,20.12c3.22,5.31,7.66,7.96,13.34,7.96,3.85,0,6.45-.48,7.8-1.44,1.36-.96,2.03-2.4,2.03-4.33v-10.73c0-2.04-.57-3.49-1.7-4.33s-3.66-1.47-7.57-1.89c-.19,0-.36-.24-.52-.72-.16-.48-.24-.93-.24-1.35s.08-.86.24-1.31c.16-.45.33-.67.52-.67,3.09,0,5.8.1,8.13.29,2.33.2,4.92.29,7.76.29s5.99-.1,9.27-.29,6.46-.29,9.55-.29c.19,0,.36.24.52.72.16.48.24.9.24,1.26Z"/><path class="b" d="M1588.13,410.53c-.44,3.36-.87,6.92-1.28,10.67-.41,3.75-.71,7.22-.9,10.4-3.97-.12-8.96-.23-14.95-.32-5.99-.09-10.82-.13-14.47-.13s-8.86.06-15.61.18c-6.75.12-11.79.21-15.14.27-.19,0-.36-.24-.52-.72-.16-.48-.24-.9-.24-1.26,0-.3.08-.69.24-1.17.16-.48.33-.75.52-.81,3.72-.42,6.16-1.17,7.33-2.25s1.75-2.85,1.75-5.31v-39.51c0-2.46-.58-4.23-1.75-5.31s-3.61-1.83-7.33-2.25c-.19-.06-.36-.33-.52-.81-.16-.48-.24-.87-.24-1.17,0-.36.08-.78.24-1.26.16-.48.33-.72.52-.72,3.34.06,8.14.15,14.38.27,6.24.12,11.38.18,15.42.18,3.41,0,8.23-.04,14.47-.13s11.29-.19,15.14-.31c-.13,2.46-.08,5.64.14,9.54.22,3.9.39,7.41.52,10.53,0,.24-.24.5-.71.77-.47.27-1.12.4-1.94.4-.44,0-.82-.06-1.13-.18-.32-.12-.47-.24-.47-.36-.5-3.78-2.16-7.36-4.97-10.75-2.81-3.39-6.76-5.08-11.87-5.08h-5.68c-1.26,0-2.49.3-3.69.9-1.2.6-1.8,2.07-1.8,4.41v18.63h3.22c3.15,0,5.69-.9,7.61-2.7,1.92-1.8,3.04-4.17,3.36-7.11,0-.18.27-.34.8-.5.54-.15.96-.22,1.28-.22.44,0,.9.08,1.37.22.47.15.71.32.71.5,0,2.22-.08,4.29-.24,6.21-.16,1.92-.24,3.9-.24,5.94s.08,4.07.24,5.89c.16,1.83.24,3.83.24,5.99,0,.18-.24.35-.71.5-.47.15-.93.22-1.37.22-.32,0-.73-.07-1.23-.22-.5-.15-.79-.32-.85-.5-.38-3.12-1.44-5.54-3.17-7.25-1.73-1.71-4.34-2.56-7.8-2.56h-3.22v19.17c0,2.16.6,3.58,1.8,4.27,1.2.69,2.43,1.04,3.69,1.04h4.92c4.79,0,9.05-1.65,12.77-4.95,3.72-3.3,6.05-7.35,7-12.15,0-.12.14-.21.43-.27.28-.06.61-.09.99-.09.69,0,1.37.12,2.03.36s.96.54.9.9Z"/><path class="b" d="M1685.19,394.06c3.72,2.1,7.22,4.61,10.5,7.51,3.28,2.91,4.92,6.59,4.92,11.03,0,6.36-2.41,11.36-7.24,14.99-4.83,3.63-10.9,5.44-18.21,5.44-4.48,0-8.31-.58-11.49-1.75s-6.83-2.12-10.93-2.83c-.06-2.16-.09-5.04-.09-8.64s-.09-6.78-.28-9.54c0-.18.27-.34.8-.5.54-.15.99-.22,1.37-.22.44,0,.87.06,1.28.18.41.12.65.3.71.54,1.2,5.34,3.71,9.75,7.52,13.23,3.81,3.48,7.52,5.22,11.12,5.22s6.29-.77,7.9-2.29c1.61-1.53,2.41-3.62,2.41-6.26,0-3.24-1.64-5.97-4.92-8.19-3.28-2.22-6.81-4.38-10.59-6.48-3.85-2.1-7.41-4.59-10.69-7.47s-4.92-6.42-4.92-10.62c0-5.58,2.22-10.27,6.67-14.08,4.45-3.81,10.55-5.71,18.3-5.71,3.47,0,6.46.41,8.99,1.21,2.52.81,5.23,1.49,8.14,2.03.06,2.16.17,4.86.33,8.1.16,3.24.36,5.91.61,8.01,0,.18-.27.35-.8.5-.54.15-.96.23-1.28.23-.44,0-.88-.06-1.32-.18-.44-.12-.73-.3-.85-.54-1.2-4.68-2.96-8.35-5.3-11.02-2.33-2.67-5.2-4-8.61-4-2.96,0-5.3.75-7,2.25-1.7,1.5-2.55,3.39-2.55,5.67,0,3,1.59,5.57,4.78,7.69,3.18,2.13,6.76,4.31,10.74,6.53Z"/></g></svg>