<?xml version="1.0" encoding="UTF-8"?><svg id="a" xmlns="http://www.w3.org/2000/svg" viewBox="0 0 1800 600"><defs><style>.b{fill:#14054b;stroke:#14054b;stroke-miterlimit:10;stroke-width:20px;}.c{fill:#02066f;}.d{letter-spacing:.49em;}.e{letter-spacing:.5em;}.f{letter-spacing:.48em;}.g{letter-spacing:.48em;}.h{letter-spacing:.5em;}.i{font-family:Ubuntu-Bold, Ubuntu;font-size:116.08px;font-weight:700;}.i,.j{fill:#140023;opacity:.81;}.k{letter-spacing:.1em;}.l{letter-spacing:.08em;}.j{font-family:AvenirNext-Heavy, 'Avenir Next';font-size:200.18px;font-weight:800;}</style></defs><text class="j" transform="translate(556.17 296.84) scale(.96 1)"><tspan class="k" x="0" y="0">ALPHAKE</tspan><tspan class="l" x="1131.62" y="0">Y</tspan></text><text class="i" transform="translate(593.22 437.34) scale(.96 1)"><tspan class="e" x="0" y="0">MO</tspan><tspan class="d" x="311.9" y="0">R</tspan><tspan class="f" x="446.2" y="0">T</tspan><tspan class="e" x="572.85" y="0">G</tspan><tspan class="g" x="712.37" y="0">A</tspan><tspan class="h" x="851.2" y="0">GES</tspan></text><path class="c" d="M154.18,536.2c-2.35,0-4.54-1.03-6.02-2.82L14,370.19c-1.5-1.83-2.05-4.19-1.52-6.48l47.89-203.48c.54-2.27,2.07-4.15,4.21-5.14l193.86-90.56c1.04-.48,2.19-.73,3.32-.73s2.29.25,3.31.72l193.88,90.56c2.13,1,3.67,2.88,4.21,5.14l47.88,203.49c.54,2.28,0,4.64-1.52,6.47l-134.16,163.18c-1.47,1.79-3.66,2.82-6.02,2.82h-215.17ZM339.5,474.49l96.89-117.86-34.56-146.91-140.07-65.43-140.06,65.43-34.57,146.91,96.89,117.86h155.48Z"/><polygon class="b" points="282.92 295.66 261.76 230.54 246.53 277.41 253.04 277.41 261.76 250.58 278.42 301.85 288.61 301.85 297.13 295.66 282.92 295.66"/><polygon class="b" points="257.2 283.6 188.72 283.6 228.6 312.57 230.61 306.38 207.78 289.79 261.7 289.8 264.84 280.11 261.59 270.09 257.2 283.6"/><polygon class="b" points="237.78 304.34 216.62 369.46 256.49 340.49 251.23 336.67 228.4 353.25 245.06 301.98 236.82 295.99 226.28 295.99 237.78 304.34"/><polygon class="b" points="251.51 329.22 306.9 369.46 291.67 322.59 286.4 326.42 295.12 353.25 251.51 321.56 243.26 327.55 240.01 337.57 251.51 329.22"/><polygon class="b" points="279.4 323.85 334.8 283.6 285.51 283.6 287.53 289.8 315.74 289.8 272.12 321.48 275.27 331.17 283.8 337.37 279.4 323.85"/></svg>