<?xml version="1.0" encoding="UTF-8"?><svg id="a" xmlns="http://www.w3.org/2000/svg" viewBox="0 0 1800 600"><defs><style>.b{fill:#140023;}.c{fill:#02066f;}.d{fill:#14054b;}.e{opacity:.81;}</style></defs><path class="c" d="M165.87,542.61c-2.35,0-4.54-1.04-6.02-2.86L25.69,374.35c-1.5-1.86-2.05-4.25-1.52-6.57l47.89-206.24c.54-2.3,2.07-4.2,4.21-5.21l193.86-91.79c1.04-.48,2.19-.74,3.32-.74s2.29.25,3.31.73l193.88,91.79c2.13,1.01,3.67,2.91,4.21,5.21l47.88,206.26c.54,2.31,0,4.7-1.52,6.56l-134.16,165.4c-1.47,1.82-3.66,2.86-6.02,2.86h-215.17ZM351.2,480.07l96.89-119.46-34.56-148.9-140.07-66.32-140.06,66.32-34.57,148.9,96.89,119.46h155.48Z"/><polygon class="d" points="294.61 295.66 273.45 230.54 258.22 277.41 264.74 277.41 273.45 250.58 290.11 301.85 300.3 301.85 308.83 295.66 294.61 295.66"/><polygon class="d" points="303.55 311.85 282.85 311.85 273.45 282.94 272 287.41 244.46 287.41 273.45 198.18 301.88 285.66 339.6 285.66 303.55 311.85"/><polygon class="d" points="268.89 283.6 200.42 283.6 240.29 312.57 242.3 306.38 219.48 289.79 273.39 289.8 276.54 280.11 273.28 270.09 268.89 283.6"/><polygon class="d" points="245.55 328.75 169.64 273.6 261.62 273.6 273.28 237.72 287.05 280.11 280.65 299.8 250.25 299.8 254.06 302.56 245.55 328.75"/><polygon class="d" points="249.47 304.34 228.31 369.46 268.19 340.49 262.92 336.67 240.09 353.25 256.75 301.98 248.51 295.99 237.98 295.99 249.47 304.34"/><polygon class="d" points="209.29 395.64 237.72 308.16 207.2 285.99 251.76 285.99 268.51 298.16 259.12 327.07 262.92 324.31 285.2 340.49 209.29 395.64"/><polygon class="d" points="263.2 329.22 318.59 369.46 303.36 322.59 298.1 326.42 306.81 353.25 263.2 321.56 254.96 327.55 251.7 337.57 263.2 329.22"/><polygon class="d" points="337.62 395.64 263.2 341.58 232.68 363.75 246.45 321.37 263.2 309.2 287.79 327.07 286.34 322.6 308.62 306.41 337.62 395.64"/><polygon class="d" points="291.1 323.85 346.49 283.6 297.21 283.6 299.22 289.8 327.43 289.8 283.82 321.48 286.96 331.17 295.49 337.37 291.1 323.85"/><polygon class="d" points="314.51 363.55 278.46 337.35 272.06 317.66 296.66 299.8 291.96 299.8 283.44 273.6 377.27 273.6 302.85 327.67 314.51 363.55"/><g class="e"><path class="b" d="M671.57,210.39c0,.44-.07.95-.21,1.54s-.31.88-.52.88c-3.43,0-6.93-.09-10.5-.27-3.57-.18-6.96-.28-10.18-.28s-6.52.09-9.92.28c-3.39.18-6.8.27-10.23.27-.21,0-.42-.27-.63-.83-.21-.55-.31-1.08-.31-1.59,0-.37.09-.84.26-1.43.17-.59.37-.92.58-.99,3.78-.44,6.38-1.36,7.82-2.75,1.43-1.39,2.05-3.56,1.84-6.49l-1.89-47.52-22.98,62.48c-.07.15-.42.33-1.05.55-.63.22-1.33.33-2.1.33-.98,0-1.71-.11-2.2-.33-.49-.22-.8-.4-.94-.55l-23.19-60.06-2.62,45.1c-.21,3.01.4,5.19,1.84,6.54,1.43,1.36,4.18,2.25,8.24,2.7.21,0,.37.31.47.93.1.62.16,1.12.16,1.49,0,.51-.11,1.04-.31,1.59-.21.55-.42.83-.63.83-2.66,0-5.09-.09-7.29-.27-2.2-.18-4.53-.28-6.98-.28s-4.86.09-7.03.28c-2.17.18-4.44.27-6.82.27-.21,0-.39-.31-.52-.93-.14-.62-.21-1.12-.21-1.49,0-.51.12-1.03.37-1.54.24-.51.47-.81.68-.88,4.13-.51,6.98-1.41,8.55-2.7,1.57-1.28,2.5-3.46,2.78-6.54l4.3-48.29c.21-3.08-.42-5.26-1.89-6.54-1.47-1.28-4.23-2.18-8.29-2.69-.21-.07-.39-.4-.53-.99-.14-.59-.21-1.06-.21-1.43,0-.51.12-1.04.37-1.59.24-.55.47-.83.68-.83,1.75,0,4.09.09,7.03.28,2.94.18,5.17.28,6.7.28,1.95,0,4.54-.09,7.77-.28,3.24-.18,5.96-.28,8.19-.28l19.21,49.74,18.37-49.74c2.66,0,5.41.09,8.24.28,2.83.18,5.16.28,6.98.28,2.1,0,4.58-.09,7.45-.28,2.87-.18,5.35-.28,7.45-.28.21,0,.4.29.58.88.17.59.26,1.1.26,1.54,0,.37-.07.86-.21,1.49-.14.62-.32.94-.53.94-3.85.44-6.45,1.36-7.82,2.75s-1.98,3.56-1.84,6.49l2.2,48.29c.14,2.93.86,5.1,2.15,6.49,1.29,1.39,4.04,2.31,8.24,2.75.21,0,.4.31.58.93.17.62.26,1.12.26,1.49Z"/><path class="b" d="M820.07,174.97c0,11-3.59,20.35-10.76,28.05-7.17,7.7-17.3,11.55-30.38,11.55s-23.23-3.87-30.43-11.6c-7.21-7.74-10.81-17.07-10.81-28s3.6-20.39,10.81-28.38c7.21-7.99,17.35-11.99,30.43-11.99s22.86,3.94,30.17,11.83c7.31,7.88,10.97,17.4,10.97,28.54ZM798.45,174.97c0-10.12-1.4-18.5-4.2-25.13s-7.91-9.96-15.32-9.96-12.61,3.35-15.37,10.06c-2.76,6.71-4.15,15.05-4.15,25.03s1.38,18.46,4.15,24.8c2.76,6.34,7.89,9.52,15.37,9.52s12.52-3.19,15.32-9.57,4.2-14.63,4.2-24.75Z"/><path class="b" d="M972.45,210.39c-.07.44-.23.95-.47,1.54s-.47.88-.68.88c-1.96,0-4.55-.09-7.77-.27-3.22-.18-5.42-.28-6.61-.28-1.68,0-3.88.09-6.61.28-2.73.18-4.93.27-6.61.27l-13.22-28.16c-1.05-2.2-2.31-3.72-3.78-4.56-1.47-.84-3.46-1.27-5.98-1.27v19.91c0,2.93.52,5.1,1.57,6.49,1.05,1.39,3.6,2.31,7.66,2.75.21,0,.4.31.58.93.17.62.26,1.12.26,1.49,0,.44-.09.95-.26,1.54-.18.59-.37.88-.58.88-3.43,0-6.75-.09-9.97-.27-3.22-.18-6.44-.28-9.65-.28s-6.56.09-10.02.28c-3.46.18-6.91.27-10.34.27-.21,0-.4-.27-.58-.83-.17-.55-.26-1.08-.26-1.59,0-.37.09-.84.26-1.43.17-.59.37-.92.58-.99,4.06-.51,6.73-1.43,8.03-2.75s1.94-3.48,1.94-6.49v-48.29c0-3.01-.65-5.17-1.94-6.49-1.29-1.32-3.97-2.24-8.03-2.75-.21-.07-.4-.4-.58-.99-.17-.59-.26-1.06-.26-1.43,0-.51.09-1.04.26-1.59s.37-.83.58-.83c3.43,0,6.94.09,10.55.28,3.6.18,7.01.28,10.23.28s6.09-.09,8.61-.28c2.52-.18,5.49-.28,8.92-.28,11.33,0,19.52,1.96,24.56,5.89s7.56,8.52,7.56,13.8c0,4.99-1.14,9-3.42,12.04-2.28,3.04-5.98,5.37-11.1,6.99l14.4,25.19c1.47,2.57,2.98,4.4,4.52,5.5,1.54,1.1,3.92,1.83,7.14,2.2.21,0,.37.31.47.93.11.62.12,1.12.05,1.49ZM938.76,158.03c0-5.65-.98-9.77-2.94-12.38-1.96-2.6-4.97-3.9-9.03-3.9-2.52,0-4.16.51-4.93,1.54-.77,1.03-1.15,2.82-1.15,5.39v24.86c.42.07,1.03.15,1.84.22.8.07,1.56.11,2.26.11,4.97,0,8.54-1.17,10.7-3.52,2.17-2.35,3.25-6.45,3.25-12.32Z"/><path class="b" d="M1108.88,162.1c0,.37-.26.7-.79.99-.53.29-1.14.44-1.84.44-.28,0-.67-.05-1.15-.16-.49-.11-.77-.24-.84-.39-.98-4.03-3.31-8.49-6.98-13.36-3.67-4.88-7.12-7.32-10.34-7.32h-1.57c-1.61,0-2.76.35-3.46,1.04-.7.7-1.05,1.78-1.05,3.25v52.14c0,2.93.66,5.1,1.99,6.49,1.33,1.39,4.02,2.31,8.08,2.75.21,0,.4.31.58.93.17.62.26,1.12.26,1.49,0,.44-.09.95-.26,1.54-.18.59-.37.88-.58.88-3.36,0-6.8-.09-10.34-.27-3.53-.18-6.87-.28-10.02-.28s-6.58.09-10.08.28c-3.5.18-6.96.27-10.39.27-.21,0-.4-.29-.58-.88-.18-.59-.26-1.1-.26-1.54,0-.37.09-.84.26-1.43.17-.59.37-.92.58-.99,4.13-.51,6.84-1.43,8.13-2.75,1.29-1.32,1.94-3.48,1.94-6.49v-52.14c0-1.61-.32-2.73-.94-3.36-.63-.62-1.82-.93-3.57-.93h-.84c-2.87,0-6.4,2.25-10.6,6.76-4.2,4.51-7.17,9.15-8.92,13.92-.07.22-.33.37-.79.44-.46.07-.82.11-1.1.11-.63,0-1.24-.15-1.84-.44-.59-.29-.89-.62-.89-.99.7-3.67,1.45-8.16,2.26-13.47s1.38-9.74,1.73-13.25c2.45.44,6.26.81,11.44,1.1,5.18.29,13.33.44,24.45.44,9.51,0,17.44-.15,23.77-.44,6.33-.29,10.51-.66,12.54-1.1.21,3.52.49,7.7.84,12.54.35,4.84.74,9.57,1.16,14.19Z"/><path class="b" d="M1256.96,178.99c0,.37-.09.86-.26,1.49-.17.62-.37.93-.58.93-3.36.37-5.67,1.32-6.93,2.87-1.26,1.54-1.89,3.67-1.89,6.39v11.13c0,1.84.09,3.16.26,3.97.17.81.47,1.69.89,2.64-4.2,1.54-9.03,2.96-14.48,4.24-5.46,1.28-11.12,1.93-17,1.93-6.79,0-12.84-1.1-18.16-3.3s-9.73-5.17-13.22-8.91c-3.43-3.59-6.02-7.77-7.77-12.54-1.75-4.77-2.62-9.72-2.62-14.85,0-5.5.96-10.62,2.89-15.34,1.92-4.73,4.84-9.04,8.76-12.92,3.85-3.74,8.69-6.69,14.54-8.86,5.84-2.16,12.33-3.25,19.47-3.25,4.06,0,8.29.62,12.7,1.87,4.41,1.25,8.22,1.87,11.44,1.87,0,3.01.07,6.88.21,11.6.14,4.73.24,8.71.31,11.94,0,.22-.3.42-.89.6-.6.18-1.14.28-1.63.28s-.93-.07-1.31-.22c-.39-.15-.65-.37-.79-.66-1.61-6.09-4.5-11.26-8.66-15.51-4.16-4.25-9.15-6.38-14.96-6.38-6.3,0-11.28,3.26-14.96,9.79-3.67,6.53-5.51,14.92-5.51,25.19s1.78,18.09,5.35,24.58,8.5,9.74,14.8,9.74c4.27,0,7.15-.59,8.66-1.76,1.5-1.18,2.26-2.94,2.26-5.29v-13.12c0-2.5-.63-4.26-1.89-5.29-1.26-1.03-4.06-1.8-8.4-2.32-.21,0-.4-.29-.58-.88-.17-.59-.26-1.14-.26-1.65s.09-1.04.26-1.59.37-.83.58-.83c3.43,0,6.44.12,9.03.36,2.59.24,5.46.36,8.61.36s6.65-.12,10.28-.36c3.64-.24,7.17-.36,10.6-.36.21,0,.4.29.58.88.17.59.26,1.1.26,1.54Z"/><path class="b" d="M1401.05,210.39c0,.44-.09.95-.26,1.54s-.37.88-.58.88c-3.36,0-6.75-.09-10.17-.27-3.43-.18-6.57-.28-9.44-.28-3.22,0-6.66.09-10.33.28-3.67.18-7.22.27-10.65.27-.21,0-.4-.27-.58-.83-.18-.55-.26-1.08-.26-1.59,0-.37.05-.84.16-1.43.11-.59.26-.92.47-.99,3.36-.22,5.58-.68,6.66-1.38,1.08-.7,1.63-1.78,1.63-3.25,0-.59-.12-1.32-.37-2.2-.24-.88-.51-1.69-.79-2.42l-2.86-7.7h-22.04l-2.55,6.38c-.42,1.03-.75,2-1,2.92-.25.92-.37,1.7-.37,2.36,0,1.54.4,2.77,1.21,3.69.8.92,3.03,1.45,6.66,1.59.21,0,.35.31.42.93.07.62.11,1.12.11,1.49,0,.51-.09,1.04-.26,1.59-.17.55-.37.83-.58.83-3.01,0-5.35-.09-7.03-.27-1.68-.18-3.91-.28-6.71-.28-2.31,0-4.33.09-6.08.28-1.75.18-3.81.27-6.18.27-.21,0-.39-.31-.53-.93-.14-.62-.21-1.12-.21-1.49s.16-.84.47-1.43c.31-.59.58-.92.79-.99,3.01-.29,5.35-1.25,7.03-2.86,1.68-1.61,3.39-4.33,5.14-8.14l26.03-61.49c.07-.22.45-.42,1.15-.6s1.36-.28,1.99-.28,1.29.09,1.99.28c.7.18,1.08.38,1.15.6l23.3,61.49c1.26,3.67,2.76,6.33,4.51,7.97,1.75,1.65,4.37,2.66,7.87,3.03.21,0,.44.31.68.93.24.62.37,1.12.37,1.49ZM1361.68,185.75l-8.84-24.22-9.21,24.22h18.05Z"/><path class="b" d="M1544.51,178.99c0,.37-.09.86-.26,1.49-.17.62-.37.93-.58.93-3.36.37-5.67,1.32-6.93,2.87-1.26,1.54-1.89,3.67-1.89,6.39v11.13c0,1.84.09,3.16.26,3.97.17.81.47,1.69.89,2.64-4.2,1.54-9.03,2.96-14.48,4.24-5.46,1.28-11.12,1.93-17,1.93-6.79,0-12.84-1.1-18.16-3.3s-9.73-5.17-13.22-8.91c-3.43-3.59-6.02-7.77-7.77-12.54-1.75-4.77-2.62-9.72-2.62-14.85,0-5.5.96-10.62,2.89-15.34,1.92-4.73,4.84-9.04,8.76-12.92,3.85-3.74,8.69-6.69,14.54-8.86,5.84-2.16,12.33-3.25,19.47-3.25,4.06,0,8.29.62,12.7,1.87,4.41,1.25,8.22,1.87,11.44,1.87,0,3.01.07,6.88.21,11.6.14,4.73.24,8.71.31,11.94,0,.22-.3.42-.89.6-.6.18-1.14.28-1.63.28s-.93-.07-1.31-.22c-.39-.15-.65-.37-.79-.66-1.61-6.09-4.5-11.26-8.66-15.51-4.16-4.25-9.15-6.38-14.96-6.38-6.3,0-11.28,3.26-14.96,9.79-3.67,6.53-5.51,14.92-5.51,25.19s1.78,18.09,5.35,24.58,8.5,9.74,14.8,9.74c4.27,0,7.15-.59,8.66-1.76,1.5-1.18,2.26-2.94,2.26-5.29v-13.12c0-2.5-.63-4.26-1.89-5.29-1.26-1.03-4.06-1.8-8.4-2.32-.21,0-.4-.29-.58-.88-.17-.59-.26-1.14-.26-1.65s.09-1.04.26-1.59.37-.83.58-.83c3.43,0,6.44.12,9.03.36,2.59.24,5.46.36,8.61.36s6.65-.12,10.28-.36c3.64-.24,7.17-.36,10.6-.36.21,0,.4.29.58.88.17.59.26,1.1.26,1.54Z"/><path class="b" d="M1680.1,187.07c-.49,4.11-.96,8.45-1.42,13.04-.46,4.58-.79,8.82-1,12.71-4.41-.15-9.94-.27-16.58-.38s-12-.17-16.06-.17-9.83.07-17.32.22c-7.49.15-13.08.26-16.79.33-.21,0-.4-.29-.58-.88-.18-.59-.26-1.1-.26-1.54,0-.37.09-.84.26-1.43.17-.59.37-.92.58-.99,4.13-.51,6.84-1.43,8.13-2.75s1.94-3.48,1.94-6.49v-48.29c0-3.01-.65-5.17-1.94-6.49-1.29-1.32-4.01-2.24-8.13-2.75-.21-.07-.4-.4-.58-.99-.18-.59-.26-1.06-.26-1.43,0-.44.09-.95.26-1.54.17-.59.37-.88.58-.88,3.71.07,9.03.18,15.95.33,6.93.15,12.63.22,17.11.22,3.78,0,9.13-.06,16.06-.17,6.93-.11,12.52-.24,16.79-.39-.14,3.01-.09,6.89.16,11.66.24,4.77.44,9.06.58,12.87,0,.29-.26.61-.79.94-.52.33-1.24.49-2.15.49-.49,0-.91-.07-1.26-.22-.35-.15-.53-.29-.53-.44-.56-4.62-2.4-9-5.51-13.15-3.11-4.14-7.5-6.21-13.17-6.21h-6.3c-1.4,0-2.76.37-4.09,1.1-1.33.73-1.99,2.53-1.99,5.39v22.77h3.57c3.5,0,6.31-1.1,8.45-3.3s3.38-5.1,3.73-8.69c0-.22.3-.42.89-.6.59-.18,1.07-.28,1.42-.28.49,0,1,.09,1.52.28.52.18.79.38.79.6,0,2.71-.09,5.24-.26,7.59-.18,2.35-.26,4.77-.26,7.26s.09,4.97.26,7.21c.17,2.24.26,4.67.26,7.31,0,.22-.26.42-.79.61-.53.18-1.03.27-1.52.27-.35,0-.81-.09-1.37-.27s-.87-.38-.94-.61c-.42-3.81-1.59-6.76-3.52-8.85s-4.81-3.13-8.66-3.13h-3.57v23.43c0,2.64.66,4.38,1.99,5.22,1.33.84,2.69,1.27,4.09,1.27h5.46c5.32,0,10.04-2.02,14.17-6.05,4.13-4.03,6.72-8.98,7.77-14.85,0-.15.16-.26.47-.33.31-.07.68-.11,1.1-.11.77,0,1.52.15,2.26.44.74.29,1.07.66,1,1.1Z"/></g><g class="e"><path class="b" d="M1076.86,244.33c-.94,1.3-1.59,2.34-1.96,3.1-.37.77-.55,1.49-.55,2.17,0,.98.35,1.9,1.06,2.78l1.06,1.37c.97,1.27,1.46,2.49,1.46,3.66,0,.91-.23,1.73-.68,2.47-.45.73-1.08,1.32-1.89,1.76s-1.69.66-2.67.66c-1.64,0-2.99-.53-4.05-1.59-1.06-1.06-1.58-2.43-1.58-4.13,0-3.74,2.98-8.07,8.95-12.99l.85.73ZM1071.93,249.45c-1.21,1.69-2.04,3.04-2.49,4.05-.45,1.01-.68,1.95-.68,2.83,0,1.14.32,2.08.96,2.83.64.75,1.39,1.12,2.26,1.12.77,0,1.39-.27,1.86-.81s.7-1.21.7-2.03c0-.88-.3-1.79-.91-2.73l-.55-.93c-.81-1.3-1.21-2.47-1.21-3.52,0-.13,0-.24.03-.34s.03-.26.03-.49ZM1089.73,244.33c-.94,1.3-1.59,2.34-1.96,3.1-.37.77-.55,1.49-.55,2.17,0,.98.35,1.9,1.06,2.78l1.06,1.37c.97,1.27,1.46,2.49,1.46,3.66,0,.91-.23,1.73-.68,2.47-.45.73-1.08,1.32-1.89,1.76s-1.69.66-2.67.66c-1.64,0-2.99-.53-4.05-1.59-1.06-1.06-1.58-2.43-1.58-4.13,0-3.74,2.98-8.07,8.95-12.99l.86.73ZM1084.8,249.45c-1.21,1.69-2.04,3.04-2.49,4.05-.45,1.01-.68,1.95-.68,2.83,0,1.14.32,2.08.96,2.83.64.75,1.39,1.12,2.26,1.12.77,0,1.39-.27,1.86-.81s.71-1.21.71-2.03c0-.88-.3-1.79-.91-2.73l-.55-.93c-.8-1.3-1.21-2.47-1.21-3.52,0-.13,0-.24.03-.34.02-.1.02-.26.02-.49Z"/><path class="b" d="M1109.37,245.21h18.03l18.95,25.7v-25.7h21.53v66.7h-18.13l-18.85-25.6v25.6h-21.53v-66.7ZM1121.63,303.91v-46.2l33.99,46.2h2.68v-50.7h-2.68v46.2l-33.99-46.2h-2.68v50.7h2.68Z"/><path class="b" d="M1187.52,261.52c1.58-2.34,2.36-4.08,2.36-5.22,0-.98-.35-1.92-1.06-2.83l-1.06-1.37c-.97-1.33-1.46-2.54-1.46-3.61,0-1.37.52-2.52,1.56-3.47,1.04-.94,2.31-1.42,3.82-1.42,1.71,0,3.08.51,4.1,1.54,1.02,1.03,1.53,2.4,1.53,4.13,0,3.78-2.98,8.12-8.95,13.04l-.85-.78ZM1191.24,256.24c.91-1.76,1.51-3.08,1.81-3.96s.45-1.79.45-2.73c0-1.2-.27-2.16-.8-2.88-.54-.72-1.26-1.07-2.16-1.07-.7,0-1.29.26-1.76.78-.47.52-.7,1.19-.7,2s.33,1.69,1.01,2.73l.6.93.6.88c.67,1.01,1.01,1.9,1.01,2.69,0,.1,0,.2-.02.29-.02.1-.03.21-.03.34ZM1200.4,261.52c1.58-2.34,2.36-4.08,2.36-5.22,0-.98-.35-1.92-1.06-2.83l-1.06-1.37c-.97-1.27-1.46-2.47-1.46-3.61,0-1.37.52-2.52,1.56-3.47,1.04-.94,2.31-1.42,3.82-1.42,1.71,0,3.08.51,4.1,1.54s1.53,2.4,1.53,4.13c0,3.78-2.98,8.12-8.95,13.04l-.85-.78ZM1204.17,256.14c1.47-2.83,2.21-5.03,2.21-6.59,0-1.2-.27-2.16-.8-2.88-.54-.72-1.26-1.07-2.16-1.07-.7,0-1.29.26-1.76.78-.47.52-.71,1.19-.71,2,0,.94.54,2.17,1.61,3.66,1.07,1.5,1.61,2.7,1.61,3.61v.49Z"/></g><g class="e"><path class="b" d="M713.53,371.46c0,6.69-2.65,11.98-7.94,15.88-5.3,3.9-12.52,5.84-21.66,5.84-1.32,0-2.52-.07-3.6-.21-1.09-.14-2.19-.34-3.31-.62v15.31c0,2.76.62,4.79,1.88,6.1,1.25,1.31,3.78,2.17,7.6,2.59.2,0,.38.29.54.88.16.59.25,1.05.25,1.4,0,.41-.08.9-.25,1.45-.17.55-.35.83-.54.83-3.22,0-6.48-.09-9.77-.26-3.29-.17-6.45-.26-9.47-.26s-6.17.09-9.42.26c-3.26.17-6.5.26-9.72.26-.2,0-.38-.26-.54-.78-.17-.52-.25-1.02-.25-1.5,0-.34.08-.79.25-1.34.16-.55.34-.86.54-.93,3.82-.48,6.33-1.34,7.55-2.59s1.83-3.28,1.83-6.1v-47.06c0-2.28-.64-3.91-1.92-4.91s-3.77-1.71-7.45-2.12c-.2-.07-.38-.38-.54-.93-.17-.55-.25-1-.25-1.34,0-.48.08-.98.25-1.5.16-.52.34-.78.54-.78,3.22,0,6.59.09,10.11.26s6.79.26,9.82.26,5.66-.08,7.89-.26c2.24-.17,4.97-.26,8.19-.26,10.39,0,17.89,2,22.5,6,4.6,4,6.91,9.48,6.91,16.44ZM693.2,370.02c0-6-.89-10.15-2.66-12.46-1.78-2.31-4.31-3.46-7.6-3.46-2.11,0-3.62.52-4.54,1.55-.92,1.03-1.38,2.69-1.38,4.96v23.79c0,1.59.67,2.6,2.02,3.05,1.35.45,2.29.67,2.81.67,3.88,0,6.74-1.52,8.58-4.55,1.84-3.03,2.76-7.55,2.76-13.55Z"/><path class="b" d="M872.99,418.63c-.07.41-.21.9-.44,1.45-.23.55-.44.83-.64.83-1.84,0-4.28-.09-7.3-.26-3.03-.17-5.1-.26-6.22-.26-1.58,0-3.65.09-6.22.26-2.57.17-4.64.26-6.22.26l-12.43-26.48c-.99-2.07-2.17-3.5-3.55-4.29-1.38-.79-3.26-1.19-5.62-1.19v18.72c0,2.76.49,4.79,1.48,6.1.99,1.31,3.39,2.17,7.2,2.59.2,0,.38.29.54.88s.25,1.05.25,1.4c0,.41-.08.9-.25,1.45-.17.55-.34.83-.54.83-3.22,0-6.35-.09-9.38-.26-3.03-.17-6.05-.26-9.08-.26s-6.17.09-9.42.26c-3.26.17-6.5.26-9.72.26-.2,0-.38-.26-.54-.78-.17-.52-.25-1.02-.25-1.5,0-.34.08-.79.25-1.34.16-.55.35-.86.54-.93,3.82-.48,6.33-1.34,7.55-2.59,1.22-1.24,1.83-3.28,1.83-6.1v-45.4c0-2.83-.61-4.86-1.83-6.1-1.22-1.24-3.73-2.1-7.55-2.59-.2-.07-.38-.38-.54-.93-.17-.55-.25-1-.25-1.34,0-.48.08-.98.25-1.5.16-.52.35-.78.54-.78,3.22,0,6.53.09,9.92.26s6.59.26,9.62.26,5.72-.08,8.09-.26,5.16-.26,8.39-.26c10.66,0,18.35,1.84,23.09,5.53,4.74,3.69,7.1,8.02,7.1,12.98,0,4.69-1.07,8.46-3.21,11.33-2.14,2.86-5.62,5.05-10.44,6.57l13.54,23.68c1.38,2.41,2.8,4.14,4.25,5.17s3.69,1.72,6.72,2.07c.2,0,.35.29.45.88s.11,1.05.05,1.4ZM841.31,369.4c0-5.31-.92-9.19-2.76-11.64-1.84-2.45-4.67-3.67-8.49-3.67-2.37,0-3.91.48-4.64,1.45-.72.97-1.08,2.66-1.08,5.07v23.37c.39.07.97.14,1.73.21.76.07,1.46.1,2.12.1,4.67,0,8.03-1.1,10.07-3.31,2.04-2.21,3.06-6.07,3.06-11.58Z"/><path class="b" d="M1025.14,385.32c0,10.34-3.37,19.13-10.11,26.37-6.74,7.24-16.27,10.86-28.57,10.86s-21.84-3.64-28.62-10.91c-6.78-7.27-10.16-16.05-10.16-26.32s3.39-19.17,10.16-26.68c6.78-7.51,16.31-11.27,28.62-11.27s21.49,3.71,28.37,11.12c6.87,7.41,10.31,16.36,10.31,26.84ZM1004.82,385.32c0-9.52-1.32-17.39-3.95-23.63-2.63-6.24-7.43-9.36-14.41-9.36s-11.86,3.15-14.46,9.46c-2.6,6.31-3.9,14.15-3.9,23.53s1.3,17.36,3.9,23.32c2.6,5.96,7.42,8.95,14.46,8.95s11.77-3,14.41-9c2.63-6,3.95-13.75,3.95-23.27Z"/><path class="b" d="M1178.39,373.22c0,.34-.25.66-.74.93-.49.28-1.07.41-1.73.41-.26,0-.62-.05-1.09-.16-.46-.1-.72-.22-.79-.36-.92-3.79-3.11-7.98-6.56-12.57-3.45-4.58-6.69-6.88-9.72-6.88h-1.48c-1.51,0-2.6.33-3.26.98-.66.66-.99,1.67-.99,3.05v49.02c0,2.76.62,4.79,1.88,6.1,1.25,1.31,3.78,2.17,7.6,2.59.2,0,.38.29.54.88.16.59.25,1.05.25,1.4,0,.41-.08.9-.25,1.45-.17.55-.34.83-.54.83-3.16,0-6.4-.09-9.72-.26-3.32-.17-6.46-.26-9.42-.26s-6.18.09-9.47.26c-3.29.17-6.55.26-9.77.26-.2,0-.38-.28-.54-.83-.17-.55-.25-1.03-.25-1.45,0-.34.08-.79.25-1.34.16-.55.35-.86.54-.93,3.88-.48,6.43-1.34,7.65-2.59,1.22-1.24,1.83-3.28,1.83-6.1v-49.02c0-1.52-.3-2.57-.89-3.15-.59-.59-1.71-.88-3.35-.88h-.79c-2.7,0-6.02,2.12-9.97,6.36-3.95,4.24-6.74,8.6-8.39,13.08-.07.21-.31.34-.74.41-.43.07-.77.1-1.04.1-.59,0-1.17-.14-1.73-.41-.56-.28-.84-.59-.84-.93.66-3.45,1.36-7.67,2.12-12.67.76-5,1.3-9.15,1.63-12.46,2.3.41,5.89.76,10.76,1.03,4.87.28,12.53.41,22.99.41,8.95,0,16.4-.14,22.35-.41,5.95-.28,9.88-.62,11.79-1.03.2,3.31.46,7.24.79,11.79.33,4.55.69,9,1.08,13.34Z"/><path class="b" d="M1323.93,396.7c-.46,3.86-.91,7.95-1.33,12.26-.43,4.31-.74,8.29-.94,11.95-4.14-.14-9.34-.26-15.59-.36-6.25-.1-11.28-.16-15.1-.16s-9.24.07-16.28.21c-7.04.14-12.3.24-15.79.31-.2,0-.38-.28-.54-.83-.16-.55-.25-1.03-.25-1.45,0-.34.08-.79.25-1.34.17-.55.35-.86.54-.93,3.88-.48,6.43-1.34,7.65-2.59s1.83-3.28,1.83-6.1v-45.4c0-2.83-.61-4.86-1.83-6.1-1.22-1.24-3.77-2.1-7.65-2.59-.2-.07-.38-.38-.54-.93-.16-.55-.25-1-.25-1.34,0-.41.08-.9.25-1.45.17-.55.35-.83.54-.83,3.49.07,8.49.17,15,.31s11.87.21,16.08.21c3.55,0,8.58-.05,15.1-.15,6.51-.1,11.77-.22,15.79-.36-.13,2.83-.08,6.48.15,10.96.23,4.48.41,8.52.54,12.1,0,.28-.25.57-.74.88-.49.31-1.17.46-2.02.46-.46,0-.86-.07-1.18-.21-.33-.14-.49-.28-.49-.41-.53-4.34-2.25-8.46-5.18-12.36-2.93-3.9-7.06-5.84-12.38-5.84h-5.92c-1.32,0-2.6.34-3.85,1.03-1.25.69-1.88,2.38-1.88,5.07v21.41h3.35c3.29,0,5.94-1.03,7.94-3.1,2.01-2.07,3.17-4.79,3.5-8.17,0-.21.28-.4.84-.57.56-.17,1-.26,1.33-.26.46,0,.94.09,1.43.26.49.17.74.36.74.57,0,2.55-.08,4.93-.25,7.14-.17,2.21-.25,4.48-.25,6.83s.08,4.67.25,6.77c.16,2.1.25,4.4.25,6.88,0,.21-.25.4-.74.57-.49.17-.97.26-1.43.26-.33,0-.76-.09-1.28-.26-.53-.17-.82-.36-.89-.57-.39-3.58-1.5-6.36-3.3-8.33-1.81-1.97-4.52-2.95-8.14-2.95h-3.35v22.03c0,2.48.62,4.12,1.88,4.91,1.25.79,2.53,1.19,3.85,1.19h5.13c5,0,9.44-1.9,13.32-5.69,3.88-3.79,6.31-8.45,7.3-13.96,0-.14.15-.24.44-.31.3-.07.64-.1,1.04-.1.72,0,1.43.14,2.12.41.69.28,1,.62.94,1.03Z"/><path class="b" d="M1476.09,395.56c-.39,3.17-.87,7.12-1.43,11.84-.56,4.72-.97,8.29-1.23,10.71-2.96,0-6.63.74-11,2.22-4.37,1.48-9.06,2.22-14.06,2.22-6.71,0-12.65-1.05-17.81-3.15s-9.46-4.88-12.88-8.33c-3.42-3.45-5.97-7.39-7.65-11.84-1.68-4.45-2.52-9.08-2.52-13.91,0-10,3.77-18.82,11.3-26.48s17.65-11.48,30.34-11.48c5.59,0,10.2.52,13.81,1.55s6.94,1.55,9.97,1.55c.13,3.31.33,7.03.59,11.17.26,4.14.53,7.93.79,11.38,0,.21-.3.4-.89.57-.59.17-1.12.26-1.58.26-.33,0-.71-.07-1.13-.21-.43-.14-.71-.34-.84-.62-.86-5.03-3.31-9.74-7.35-14.12-4.05-4.38-8.63-6.57-13.77-6.57-7.76,0-13.19,3.12-16.28,9.36-3.09,6.24-4.64,14.12-4.64,23.63s1.53,17.01,4.59,23.12c3.06,6.1,8.37,9.15,15.94,9.15,6.05,0,10.99-2.21,14.8-6.62,3.82-4.41,6.68-9.55,8.58-15.41.07-.28.35-.48.84-.62.49-.14.9-.21,1.23-.21s.79.09,1.38.26c.59.17.89.36.89.57Z"/><path class="b" d="M1630.61,373.22c0,.34-.25.66-.74.93-.49.28-1.07.41-1.73.41-.26,0-.62-.05-1.09-.16-.46-.1-.72-.22-.79-.36-.92-3.79-3.11-7.98-6.56-12.57-3.45-4.58-6.69-6.88-9.72-6.88h-1.48c-1.51,0-2.6.33-3.26.98-.66.66-.99,1.67-.99,3.05v49.02c0,2.76.62,4.79,1.88,6.1,1.25,1.31,3.78,2.17,7.6,2.59.2,0,.38.29.54.88.16.59.25,1.05.25,1.4,0,.41-.08.9-.25,1.45-.17.55-.34.83-.54.83-3.16,0-6.4-.09-9.72-.26-3.32-.17-6.46-.26-9.42-.26s-6.18.09-9.47.26c-3.29.17-6.55.26-9.77.26-.2,0-.38-.28-.54-.83-.17-.55-.25-1.03-.25-1.45,0-.34.08-.79.25-1.34.16-.55.35-.86.54-.93,3.88-.48,6.43-1.34,7.65-2.59,1.22-1.24,1.83-3.28,1.83-6.1v-49.02c0-1.52-.3-2.57-.89-3.15-.59-.59-1.71-.88-3.35-.88h-.79c-2.7,0-6.02,2.12-9.97,6.36-3.95,4.24-6.74,8.6-8.39,13.08-.07.21-.31.34-.74.41-.43.07-.77.1-1.04.1-.59,0-1.17-.14-1.73-.41-.56-.28-.84-.59-.84-.93.66-3.45,1.36-7.67,2.12-12.67.76-5,1.3-9.15,1.63-12.46,2.3.41,5.89.76,10.76,1.03,4.87.28,12.53.41,22.99.41,8.95,0,16.4-.14,22.35-.41,5.95-.28,9.88-.62,11.79-1.03.2,3.31.46,7.24.79,11.79.33,4.55.69,9,1.08,13.34Z"/></g></svg>